<svg xmlns="http://www.w3.org/2000/svg" viewBox="0 0 512 512" width="512" height="512"><rect width="512" height="512" rx="116" fill="#141413"/><rect x="137" y="98" width="70" height="52" rx="16" fill="#f1eee6"/><rect x="221" y="98" width="70" height="52" rx="16" fill="#f1eee6"/><rect x="305" y="98" width="70" height="52" rx="16" fill="#f1eee6"/><rect x="137" y="164" width="70" height="52" rx="16" fill="#f1eee6"/><rect x="137" y="230" width="70" height="52" rx="16" fill="#f1eee6"/><rect x="221" y="230" width="70" height="52" rx="16" fill="#e8b349"/><rect x="305" y="230" width="70" height="52" rx="16" fill="#f1eee6"/><rect x="305" y="296" width="70" height="52" rx="16" fill="#f1eee6"/><rect x="137" y="362" width="70" height="52" rx="16" fill="#f1eee6"/><rect x="221" y="362" width="70" height="52" rx="16" fill="#f1eee6"/><rect x="305" y="362" width="70" height="52" rx="16" fill="#f1eee6"/></svg>
